{
  "accessors": [
    {
      "bufferView": 2,
      "componentType": 5126,
      "count": 10433,
      "max": [
        5.255253791809082,
        11.245450973510742,
        9.981058120727539
      ],
      "min": [
        -26.016040802001953,
        -10.784231185913086,
        -9.637999534606934
      ],
      "type": "VEC3"
    },
    {
      "bufferView": 2,
      "byteOffset": 125196,
      "componentType": 5126,
      "count": 10433,
      "max": [
        0.9999982714653015,
        1.0,
        1.0
      ],
      "min": [
        -0.9999982118606567,
        -1.0,
        -1.0
      ],
      "type": "VEC3"
    },
    {
      "bufferView": 1,
      "componentType": 5126,
      "count": 10433,
      "max": [
        0.9675828218460083,
        0.9926702380180359
      ],
      "min": [
        0.01605001837015152,
        0.0007727250922471285
      ],
      "type": "VEC2"
    },
    {
      "bufferView": 0,
      "componentType": 5125,
      "count": 53856,
      "type": "SCALAR"
    }
  ],
  "asset": {
    "extras": {
      "author": "cgboy (https://sketchfab.com/abhayn2003)",
      "license": "CC-BY-4.0 (http://creativecommons.org/licenses/by/4.0/)",
      "source": "https://sketchfab.com/3d-models/black-coffee-mug-ea4fcd090219414084c1bf9b80381599",
      "title": "black coffee mug"
    },
    "generator": "Sketchfab-14.71.0",
    "version": "2.0"
  },
  "bufferViews": [
    {
      "buffer": 0,
      "byteLength": 215424,
      "name": "floatBufferViews",
      "target": 34963
    },
    {
      "buffer": 0,
      "byteLength": 83464,
      "byteOffset": 215424,
      "byteStride": 8,
      "name": "floatBufferViews",
      "target": 34962
    },
    {
      "buffer": 0,
      "byteLength": 250392,
      "byteOffset": 298888,
      "byteStride": 12,
      "name": "floatBufferViews",
      "target": 34962
    }
  ],
  "buffers": [
    {
      "byteLength": 549280,
      "uri": "scene.bin"
    }
  ],
  "extensionsUsed": [
    "KHR_materials_clearcoat",
    "KHR_materials_specular"
  ],
  "images": [
    {
      "uri": "textures/Material_113_baseColor.jpeg"
    }
  ],
  "materials": [
    {
      "doubleSided": true,
      "extensions": {
        "KHR_materials_clearcoat": {
          "clearcoatFactor": 1.0,
          "clearcoatRoughnessFactor": 0.04
        },
        "KHR_materials_specular": {
          "specularColorFactor": [
            1.0,
            1.0,
            1.0
          ],
          "specularFactor": 0.0
        }
      },
      "name": "Material_113",
      "pbrMetallicRoughness": {
        "baseColorTexture": {
          "index": 0
        },
        "metallicFactor": 0.0,
        "roughnessFactor": 0.0
      }
    }
  ],
  "meshes": [
    {
      "name": "Line001_Material #113_0",
      "primitives": [
        {
          "attributes": {
            "NORMAL": 1,
            "POSITION": 0,
            "TEXCOORD_0": 2
          },
          "indices": 3,
          "material": 0,
          "mode": 4
        }
      ]
    }
  ],
  "nodes": [
    {
      "children": [
        1
      ],
      "matrix": [
        1.0,
        0.0,
        0.0,
        0.0,
        0.0,
        2.220446049250313e-16,
        -1.0,
        0.0,
        0.0,
        1.0,
        2.220446049250313e-16,
        0.0,
        0.0,
        0.0,
        0.0,
        1.0
      ],
      "name": "Sketchfab_model"
    },
    {
      "children": [
        2
      ],
      "matrix": [
        0.02539999969303608,
        0.0,
        0.0,
        0.0,
        0.0,
        0.0,
        0.02539999969303608,
        0.0,
        0.0,
        -0.02539999969303608,
        0.0,
        0.0,
        0.0,
        0.0,
        0.0,
        1.0
      ],
      "name": "418c79cb05874a688a74bb81439078bc.fbx"
    },
    {
      "children": [
        3
      ],
      "name": "RootNode"
    },
    {
      "children": [
        4
      ],
      "matrix": [
        1.4843623007584657e-07,
        0.0,
        0.9110950231552003,
        0.0,
        -4.371138822550499e-08,
        0.999999999999999,
        7.121489544118112e-15,
        0.0,
        -0.9999999999999858,
        -4.371138822550557e-08,
        1.6292069027201705e-07,
        0.0,
        2.0556633472442627,
        9.871328353881836,
        4.818052291870117,
        1.0
      ],
      "name": "Line001"
    },
    {
      "mesh": 0,
      "name": "Line001_Material #113_0"
    }
  ],
  "samplers": [
    {
      "magFilter": 9729,
      "minFilter": 9987,
      "wrapS": 10497,
      "wrapT": 10497
    }
  ],
  "scene": 0,
  "scenes": [
    {
      "name": "Sketchfab_Scene",
      "nodes": [
        0
      ]
    }
  ],
  "textures": [
    {
      "sampler": 0,
      "source": 0
    }
  ]
}
